Coordinates
version=1
nRows=10
nColumns=22
inDegrees=yes

Units are S.I. units (second, meters, Newtons, ...)
If the header above contains a line with 'inDegrees', this indicates whether rotational values are in degrees (yes) or radians (no).

endheader
time	pelvis_tilt	pelvis_list	pelvis_rotation	pelvis_tx	pelvis_ty	pelvis_tz	hip_flexion_r	hip_adduction_r	hip_rotation_r	knee_angle_r	ankle_angle_r	subtalar_angle_r	hip_flexion_l	hip_adduction_l	hip_rotation_l	knee_angle_l	ankle_angle_l	subtalar_angle_l	lumbar_extension	lumbar_bending	lumbar_rotation
      4.55000000	     -8.26008491	      1.44558302	     -0.96093115	      0.07879027	      0.97973167	      0.28744797	     26.95985435	     -6.67591568	     -2.06071566	    -43.24968415	     20.70580658	      1.60662906	     15.34429555	      7.24097960	     -5.01108672	    -17.84251921	     17.81775048	     -4.39742880	     -0.34096615	     -1.06781086	      2.11540945
      4.56000000	     -8.26881872	      1.46959529	     -0.98243508	      0.08091280	      0.97964079	      0.28705197	     27.38291260	     -6.65355429	     -2.18558138	    -42.47167408	     20.77465047	      1.57783379	     15.15317557	      7.28923363	     -5.05581949	    -17.72135236	     17.91071108	     -4.39173772	     -0.40583404	     -1.14170859	      2.11019904
      4.57000000	     -8.26495475	      1.48572894	     -0.99862588	      0.08297980	      0.97955999	      0.28671269	     27.80493888	     -6.60243732	     -2.28753868	    -41.74074798	     20.81434378	      1.53993555	     14.95947248	      7.32878221	     -5.07523929	    -17.61643085	     18.01168229	     -4.38178908	     -0.49802508	     -1.21120992	      2.10192440
      4.58000000	     -8.25311170	      1.48968956	     -1.01720896	      0.08499654	      0.97948874	      0.28643770	     28.23315037	     -6.51864066	     -2.36119944	    -41.05791646	     20.79926704	      1.51301743	     14.76600044	      7.35105709	     -5.08850885	    -17.52345922	     18.11786595	     -4.37083717	     -0.60997890	     -1.26889512	      2.09556791
      4.59000000	     -8.23692436	      1.48277754	     -1.04266628	      0.08697593	      0.97942366	      0.28624809	     28.67090972	     -6.40278534	     -2.40626219	    -40.42276760	     20.73488409	      1.51309227	     14.57723047	      7.35555864	     -5.10302232	    -17.44646642	     18.22609076	     -4.36210673	     -0.73407824	     -1.31805452	      2.09104067
      4.60000000	     -8.21036206	      1.44153766	     -1.08186869	      0.08890183	      0.97937765	      0.28613816	     29.10527008	     -6.22765031	     -2.41053811	    -39.82339180	     20.60108963	      1.55307989	     14.39914220	      7.31566753	     -5.12597954	    -17.40999606	     18.35438705	     -4.35103104	     -0.88434118	     -1.32791664	      2.12614069
      4.61000000	     -8.18827802	      1.40867398	     -1.11528756	      0.09083050	      0.97931994	      0.28605251	     29.55535130	     -6.06101170	     -2.41011078	    -39.27180808	     20.47318627	      1.63728511	     14.22144370	      7.28505452	     -5.15153622	    -17.36406585	     18.47508604	     -4.34336821	     -1.02853934	     -1.34472229	      2.13500434
      4.62000000	     -8.16400580	      1.37089558	     -1.14525322	      0.09276210	      0.97926565	      0.28600161	     30.00686008	     -5.88752779	     -2.40396545	    -38.75652840	     20.33048497	      1.75360936	     14.04536467	      7.24800273	     -5.17430107	    -17.32744809	     18.59763416	     -4.33515309	     -1.17861182	     -1.35675985	      2.14086839
      4.63000000	     -8.13554123	      1.33177883	     -1.17193745	      0.09469924	      0.97921994	      0.28595948	     30.45466944	     -5.71664004	     -2.39957171	    -38.26838562	     20.17040741	      1.87789727	     13.86605064	      7.21134669	     -5.19030186	    -17.29342183	     18.72469278	     -4.32178411	     -1.33398548	     -1.36004039	      2.14141500
      4.64000000	     -8.10200344	      1.28785328	     -1.19138034	      0.09664838	      0.97918872	      0.28595477	     30.89143503	     -5.54648395	     -2.40833114	    -37.79817413	     19.99123966	      2.00290168	     13.68510523	      7.16684934	     -5.21138790	    -17.26657392	     18.85469166	     -4.29911284	     -1.49616366	     -1.36108278	      2.13322315
